# xmcd CD database file
#
# Track frame offsets:
#	150
#	28163
#	56800
#	92158
#	103500
#	141925
#	156475
#	193450
#	214088
#
# Disc length: 3403 seconds
#
# Revision: 0
# Processed by: cddbd v1.5.2PL0 Copyright (c) Steve Scherf et al.
# Submitted via: CDex 1.51
#
DISCID=8b0d4909
DTITLE=André Ceccarelli - From The Heart
DYEAR=1900
DGENRE=Jazz
TTITLE0=Decision
TTITLE1=Desideri
TTITLE2=Spiral Of Love
TTITLE3=Together
TTITLE4=Madame
TTITLE5=Chaotic Romance
TTITLE6=Moussolou
TTITLE7=From the Heart
TTITLE8=Cardinal Points
EXTD=
EXTT0=
EXTT1=
EXTT2=
EXTT3=
EXTT4=
EXTT5=
EXTT6=
EXTT7=
EXTT8=
PLAYORDER=
